<svg id="Layer_1" data-name="Layer 1" xmlns="http://www.w3.org/2000/svg" viewBox="0 0 384 486.92"><defs><style>.cls-1,.cls-3{fill:#deb72c;}.cls-2{fill:#4252dd;}.cls-3{isolation:isolate;}</style></defs><rect class="cls-1" x="65.12" y="167.39" width="256.06" height="273.67"/><rect class="cls-2" x="35.86" y="166.92" width="314.58" height="63.84"/><path class="cls-3" d="M37.46,118a37.17,37.17,0,0,1,.33-37.43c9.11-16,28-23.66,45.57-20.12.34-16.64,11.46-32,29-37.43a43.36,43.36,0,0,1,38.82,6.08A41.62,41.62,0,0,1,178.5,2c22.27-6.78,46.23,4.42,53.33,25.54a4.22,4.22,0,0,1,.68,1.92A43.26,43.26,0,0,1,271.65,23c17.53,5.43,28.67,20.79,29,37.43C318.2,57,337.09,64.58,346.2,80.58a37.88,37.88,0,0,1,.33,37.43,42.68,42.68,0,0,1,33.09,20.79c3.91,6.75,4.76,14,4.24,21.12H.13c-.5-7.12.35-14.38,4.27-21.12C11.14,126.65,24,119.29,37.46,118Z"/><path class="cls-2" d="M0,166.92H81.56l28,256h45.05l-21.56-256H251l-21.61,256h45l28-256H384L340.09,459.65a32,32,0,0,1-31.65,27.27H75.56a32,32,0,0,1-31.65-27.25Z"/></svg>